<svg width="500" height="612" xmlns="http://www.w3.org/2000/svg" xmlns:svg="http://www.w3.org/2000/svg">
 <g class="layer">
  <title>Layer 1</title>
  <path fill-rule="evenodd" clip-rule="evenodd" d="m157.83304,370.282l184.034,0.016l92.027,-161.634l-92.002,-161.649l-184.033,-0.015l-92.027,161.633l92.001,161.649zm45.754,-78.776l-46.289,-81.136l46.3,-81.125l92.594,0.01l46.284,81.13l-46.299,81.126l-92.59,-0.005z" id="svg_1"/>
  <polygon fill="black" fill-rule="evenodd" clip-rule="evenodd" points="157.6840419769287,370.57599449157715 341.7180233001709,370.59100914001465 433.750036239624,208.95799827575684 341.7440547943115,47.30900001525879 157.7150478363037,47.293996810913086 157.45204734802246,47.75699806213379 159.2560329437256,47.75699806213379 205.5440273284912,128.89399528503418 205.1740322113037,129.53199577331543 296.04205894470215,129.54200553894043 342.3310604095459,210.6790065765381 296.0260372161865,291.80499839782715 203.9010524749756,291.79901695251465 159.2450466156006,370.0350093841553 157.38002586364746,370.0400142669678 " id="svg_2"/>
  <polygon fill-rule="evenodd" clip-rule="evenodd" fill="#7f0000" points="112.12105369567871,291.0470027923584 65.8320369720459,209.91100120544434 112.13704490661621,128.78500175476074 204.7250270843506,128.79499626159668 251.01503562927246,209.9320125579834 204.7100429534912,291.0580196380615 " id="svg_3"/>
  <path fill-rule="evenodd" clip-rule="evenodd" fill="#7f0000" d="m296.44904,449.692l91.625,0.005l45.82,-79.287l-45.805,-79.297l-91.63,-0.005l-45.821,79.287l45.811,79.297zm22.776,-38.643l-23.044,-39.798l23.055,-39.798l46.098,0.005l23.044,39.798l-23.049,39.798l-46.104,-0.005z" id="svg_4"/>
  <rect x="69.11904" y="409.91" fill-rule="evenodd" clip-rule="evenodd" fill="none" width="376.918" height="176.543" id="svg_5"/>
  <text stroke="#000000" fill="#000000" stroke-width="0" stroke-dasharray="null" stroke-linejoin="null" stroke-linecap="null" stroke-opacity="0" x="133.61473" y="407.36096" id="svg_27" font-size="18" font-family="Sans-serif" text-anchor="middle" xml:space="preserve" font-weight="bold" transform="matrix(6.308361530034647,0,0,6.308361530034647,-590.5036368997226,-2040.0382435917704) ">dlintec</text>
  <rect x="80.68004" y="528.619" fill-rule="evenodd" clip-rule="evenodd" fill="none" width="364.101" height="36.125" id="svg_7"/>
  <text stroke="#000000" transform="matrix(0.65507171366351,0,0,0.65507171366351,379.74011580435325,90.8912764743509) " font-weight="bold" xml:space="preserve" text-anchor="middle" font-family="Sans-serif" font-size="35" id="svg_8" y="701.32295" x="-201.71071" stroke-linecap="null" stroke-linejoin="null" stroke-dasharray="null" stroke-width="0" fill="#7f0000">Digital Intelligence Technologies</text>
  <rect fill="#000000" stroke="#000000" stroke-width="5" x="1.33333" y="1.33333" width="37.33333" height="32" id="svg_6" stroke-opacity="0"/>
  <rect fill="#000000" stroke="#000000" stroke-width="5" stroke-dasharray="null" stroke-linejoin="null" stroke-linecap="null" stroke-opacity="0" x="456.44446" y="573.77778" width="42.66667" height="37.33333" id="svg_10"/>
 </g>
</svg>
