<svg version="1.1" id="Capa_1" xmlns="http://www.w3.org/2000/svg" xmlns:xlink="http://www.w3.org/1999/xlink" x="0px" y="0px"
	 width="636.555px" height="213px" viewBox="0 0 636.555 213" enable-background="new 0 0 636.555 213" xml:space="preserve">
<path fill-rule="evenodd" clip-rule="evenodd" fill="#FFD505" d="M273.409,116.708c-2.985-1.638-5.531-4.375-8.799-5.4
	c-3.347-1.028-6.864,0.13-10.191,0.78c-6.746,1.292-15.34,4.485-21.309-0.609c-0.096-0.077-0.208-0.171-0.303-0.248
	c-0.762-0.646-2.169-2.207-2.226-5.228c0,0-0.019-11.311,9.561-15.36c-3.421-4.638-3.935-10.512-4.674-16.044
	c3.439,1.122,4.655,4.791,7.452,6.786c5.018,3.536,11.711,5.324,16.993,8.689c5.704,3.611,10.894,7.85,15.399,12.888
	c1.482,1.671,4.732,4.941,6.368,8.079c0,0,1.465,3.554,0,5.74C279.779,118.627,275.712,117.962,273.409,116.708z M243.451,59.867
	c-11.291,0-21.538,4.448-29.124,11.652c3.308,2.035,6.064,4.962,8.611,8.727h0.02c0,0,0.02,0.038,0.057,0.095l0.096,0.152
	c0.552,0.779,2.471,2.984,6.672,3.213c0,0,1.522,0,2.263-0.039c0.115-0.02,0.227-0.056,0.341-0.038l0.039-0.018l0.039-0.02
	c0.416-0.286,1.122,0.457,0.324,1.064c-0.742,0.57-1.979,0.836-2.169,0.875c-0.361,0.075-0.836,0.17-1.501,0.266l-0.456,0.077
	c-0.646,0.149-1.35,0.265-2.016,0.379l-2.87,0.533c0,0-1.103,0.285-1.692,0.455c-0.419,0.191-0.913,0.4-1.521,0.609
	c-1.995,0.702-3.953,1.559-5.874,2.451c-4.562,2.129-8.877,4.696-13.25,7.167c-0.172,1.54-0.267,3.1-0.267,4.696
	c0,1.919,0.153,3.82,0.399,5.685c7.034-5.951,13.821-12.3,22.205-16.254c2.49-1.103,5.038-2.034,7.699-2.585
	c0,0,0.874-0.286,1.635-0.286c0.055,0,0.135,0,0.208,0c2.833,0.095,2.473,1.902,0.533,3.403c-0.266,0.266-0.972,0.931-1.636,1.806
	c-1.407,2.186-3.953,6.71-5.398,12.49c-0.19,0.834-0.361,1.669-0.476,2.546c-0.931,6.977-0.59,14.161-2.262,21.026l-0.228,0.549
	c0,0-1.446,2.908-5.094,5.93c6.958,5,15.474,7.967,24.694,7.967c23.363,0,42.296-18.936,42.296-42.278
	C285.747,78.801,266.814,59.867,243.451,59.867z"/>
<path fill="#F59C3D" d="M281.68,111.041c-1.636-3.138-4.886-6.408-6.368-8.079c-4.505-5.038-9.695-9.277-15.399-12.888
	c-5.282-3.365-11.976-5.153-16.993-8.708c-2.796-1.977-4.012-5.646-7.452-6.768c0.739,5.532,1.253,11.406,4.674,16.044
	c-9.58,4.049-9.561,15.36-9.561,15.36c0.056,3.021,1.464,4.582,2.226,5.209c0.094,0.096,0.207,0.19,0.303,0.267
	c5.969,5.094,14.563,1.902,21.309,0.609c3.327-0.65,6.844-1.809,10.191-0.78c3.269,1.025,5.814,3.762,8.799,5.4
	c2.303,1.254,6.37,1.919,8.271,0.073C283.145,114.595,281.68,111.041,281.68,111.041z"/>
<path fill="#F59C3D" d="M223.851,130.545l0.228-0.549c1.672-6.865,1.331-14.05,2.262-21.026c0.115-0.877,0.286-1.712,0.476-2.546
	c1.445-5.78,3.991-10.304,5.398-12.49c0.665-0.875,1.37-1.541,1.636-1.806c1.939-1.501,2.299-3.308-0.533-3.403h-0.208
	c-0.761,0-1.635,0.286-1.635,0.286c-2.661,0.551-5.209,1.482-7.699,2.585c-8.383,3.954-15.17,10.303-22.205,16.254
	c1.579,11.766,7.985,21.995,17.186,28.626C222.405,133.453,223.851,130.545,223.851,130.545z"/>
<path fill="#F28D21" d="M220.562,87.85c0.608-0.209,1.102-0.418,1.521-0.609c0.589-0.17,1.692-0.455,1.692-0.455l2.87-0.533
	c0.684-0.114,1.37-0.229,2.016-0.379l0.456-0.077c0.665-0.095,1.14-0.19,1.501-0.266c0.19-0.039,1.427-0.305,2.169-0.875
	c0.72-0.552,0.207-1.197-0.21-1.122c-0.039,0.02-0.076,0.04-0.114,0.058l-0.039,0.02l-0.039,0.018
	c-0.114-0.018-0.227,0.019-0.341,0.038c-0.115,0-0.266,0.019-0.4,0.019c-0.797,0.02-1.863,0.02-1.863,0.02
	c-4.201-0.229-6.12-2.434-6.672-3.213l-0.096-0.152l-0.057-0.095h-0.02c-2.547-3.764-5.303-6.691-8.611-8.727
	c-7.034,6.691-11.767,15.779-12.888,25.949c4.373-2.471,8.706-5.038,13.25-7.167C216.609,89.409,218.567,88.552,220.562,87.85z"/>
<rect x="222.56" y="126.305" fill="#F9AF1D" width="6.024" height="6.025"/>
<rect x="216.533" y="72.014" fill="#FFD505" width="6.026" height="6.026"/>
<rect x="216.533" y="65.988" fill="#FFEDB7" width="6.026" height="6.026"/>
<rect x="210.507" y="90.093" fill="#FFD505" width="6.026" height="6.045"/>
<rect x="216.533" y="90.093" fill="#FBB81B" width="6.026" height="6.045"/>
<rect x="210.507" y="96.138" fill="#F59C3D" width="6.026" height="6.043"/>
<rect x="210.507" y="84.066" fill="#F59C3D" width="6.026" height="6.026"/>
<rect x="180.413" y="90.112" fill="#FFEDB7" width="6.026" height="6.025"/>
<rect x="210.507" y="78.04" fill="#FFD505" width="6.026" height="6.026"/>
<rect x="210.507" y="72.014" fill="#F59C3D" width="6.026" height="6.026"/>
<rect x="204.461" y="90.093" fill="#F59C3D" width="6.046" height="6.045"/>
<rect x="204.461" y="96.156" fill="#FBB81B" width="6.046" height="6.046"/>
<rect x="204.461" y="102.202" fill="#F59C3D" width="6.046" height="6.025"/>
<rect x="216.533" y="108.227" fill="#F9AF1D" width="6.026" height="6.026"/>
<rect x="204.461" y="84.066" fill="#FFE144" width="6.046" height="6.026"/>
<rect x="204.461" y="78.04" fill="#F59C3D" width="6.046" height="6.026"/>
<rect x="198.435" y="90.093" fill="#FFD505" width="6.026" height="6.045"/>
<rect x="198.435" y="96.156" fill="#FFEC7C" width="6.026" height="6.046"/>
<rect x="198.435" y="102.202" fill="#F59C3D" width="6.026" height="6.025"/>
<rect x="198.435" y="84.066" fill="#FFEDB7" width="6.026" height="6.026"/>
<rect x="192.41" y="90.093" fill="#FFEDB7" width="6.025" height="6.045"/>
<rect x="186.382" y="78.04" fill="#FFEDB7" width="6.028" height="6.026"/>
<rect x="186.382" y="102.202" fill="#FFEDB7" width="6.028" height="6.025"/>
<rect x="204.461" y="59.961" fill="#FFEDB7" width="6.046" height="6.027"/>
<rect x="192.41" y="96.156" fill="#FFD505" width="6.025" height="6.046"/>
<rect x="180.413" y="108.227" fill="#FFEC7C" width="6.026" height="6.026"/>
<rect x="192.41" y="102.202" fill="#FFE144" width="6.025" height="6.025"/>
<rect x="192.41" y="108.227" fill="#F9AF1D" width="6.025" height="6.026"/>
<rect x="198.435" y="108.227" fill="#FFE144" width="6.026" height="6.026"/>
<rect x="198.435" y="65.988" fill="#FFD505" width="6.026" height="6.026"/>
<rect x="198.435" y="114.253" fill="#F59C3D" width="6.026" height="6.026"/>
<rect x="204.461" y="114.253" fill="#FFD505" width="6.046" height="6.026"/>
<rect x="180.413" y="65.988" fill="#FFEDB7" width="6.026" height="6.026"/>
<rect x="204.461" y="120.279" fill="#F59C3D" width="6.046" height="6.026"/>
<rect x="210.507" y="120.279" fill="#F9AF1D" width="6.026" height="6.026"/>
<rect x="192.41" y="84.066" fill="#F9AF1D" width="6.025" height="6.026"/>
<rect x="198.435" y="78.04" fill="#FFEC7C" width="6.026" height="6.026"/>
<rect x="204.461" y="72.014" fill="#FFEC7C" width="6.046" height="6.026"/>
<rect x="210.507" y="65.988" fill="#FFEC7C" width="6.026" height="6.026"/>
<rect x="222.56" y="72.014" fill="#F59C3D" width="6.024" height="6.026"/>
<rect x="222.56" y="65.988" fill="#FFD505" width="6.024" height="6.026"/>
<rect x="222.56" y="59.961" fill="#FFEC7C" width="6.024" height="6.027"/>
<rect x="216.533" y="59.961" fill="#FFFFFF" width="6.026" height="6.027"/>
<rect x="228.584" y="65.988" fill="#FFE144" width="6.026" height="6.026"/>
<rect x="234.61" y="65.988" fill="#F9AF1D" width="6.025" height="6.026"/>
<rect x="228.584" y="59.961" fill="#FFD505" width="6.026" height="6.027"/>
<rect x="234.61" y="59.961" fill="#FFD505" width="6.025" height="6.027"/>
<path fill="#F59C3D" d="M216.533,90.093c0,0,3.022-1.901,5.721-2.89l-6.463,0.665l-0.836,1.596L216.533,90.093z"/>
<rect x="216.533" y="78.04" fill="#F59C3D" width="6.026" height="6.026"/>
<rect x="187.39" y="48.479" fill="none" width="102.428" height="109.879"/>
<path fill="#0658A3" d="M442.828,66.545c0,4.26-3.46,7.685-7.719,7.685s-7.716-3.425-7.716-7.685c0-4.257,3.457-7.717,7.716-7.717
	S442.828,62.288,442.828,66.545z"/>
<path fill="#010202" d="M290.099,62.055l19.827-0.73c26.614-0.999,28.61,13.272,28.61,16.833c0,12.708-12.642,17.266-23.253,18.43
	l-0.3-1.364c8.283-1.265,14.272-5.523,14.272-14.638c0-11.81-9.881-17.167-20.526-17.065v44.875
	c0,10.016,0.166,11.845,12.076,13.574v1.332h-31.337v-1.332c10.911-1.462,10.978-4.191,11.277-13.574V80.251
	c0-12.375,0-16.267-10.646-16.833V62.055z"/>
<path fill-rule="evenodd" clip-rule="evenodd" fill="#010202" d="M356.366,84.245c-9.813,0-13.84,10.18-13.84,18.53
	c0,8.449,4.726,19.46,14.571,19.46c9.183,0,13.274-10.445,13.274-18.265C370.372,95.588,366.28,84.245,356.366,84.245z
	 M356.434,124.232c-12.442,0-22.356-7.917-22.356-20.827c0-12.542,10.281-21.156,22.455-21.156c12.376,0,22.257,7.982,22.257,20.791
	C378.789,115.415,368.441,124.232,356.434,124.232z"/>
<path fill="#010202" d="M383.544,95.422c0-3.826,0.102-4.99-4.457-8.285v-0.898l10.813-3.99l0.998,0.365l-0.7,6.621
	c5.156-3.829,10.146-6.986,15.968-6.986c10.913,0,11.479,8.98,11.479,14.337v16.201c0,7.452,0.334,8.15,7.084,9.147v1.365h-21.187
	v-1.365c6.719-0.997,7.017-2.059,7.081-9.147v-10.479c0-6.354,0.267-15.336-10.812-15.336c-3.724,0-6.251,1.165-9.245,3.893v21.923
	c0,7.452,0.332,8.15,7.085,9.147v1.365h-21.19v-1.365c6.716-0.997,6.983-2.059,7.083-9.147V95.422z"/>
<path fill="#010202" d="M427.094,123.299v-1.332c6.751-1.03,7.019-2.092,7.116-9.18V95.422c0-3.826,0.066-4.99-5.557-8.285v-0.898
	l11.547-3.99l0.998,0.365v30.173c0,7.452,0.365,8.15,7.084,9.18v1.332H427.094z"/>
<path fill-rule="evenodd" clip-rule="evenodd" fill="#777777" d="M454.415,141.397c0.5,0,1,0,1-0.566c0-0.465-0.399-0.566-0.8-0.566
	h-0.733v1.132H454.415z M453.882,143.226h-0.397v-3.292h1.265c0.731,0,1.063,0.299,1.063,0.896c0,0.6-0.365,0.865-0.833,0.932
	l1.002,1.463h-0.501l-0.931-1.463h-0.668V143.226z M452.088,141.564c0,1.396,1.032,2.462,2.429,2.462
	c1.362,0,2.393-1.066,2.393-2.462c0-1.366-1.03-2.429-2.393-2.429C453.12,139.135,452.088,140.198,452.088,141.564z
	 M457.377,141.564c0,1.631-1.267,2.894-2.86,2.894c-1.628,0-2.863-1.263-2.863-2.894c0-1.597,1.235-2.861,2.863-2.861
	C456.11,138.703,457.377,139.967,457.377,141.564z"/>
<path fill-rule="evenodd" clip-rule="evenodd" fill="#7F8184" d="M291.695,136.774c0.367,0.13,0.798,0.13,1.331,0.13
	c2.129,0,3.495-1.098,3.495-3.125c0-1.864-1.2-2.93-3.261-2.93c-0.733,0-1.264,0.068-1.564,0.136V136.774z M289.833,129.688
	c0.865-0.167,1.962-0.3,3.361-0.3c1.729,0,3.06,0.4,3.924,1.196c0.799,0.701,1.264,1.766,1.264,3.059
	c0,1.333-0.397,2.366-1.097,3.132c-0.964,1.096-2.529,1.628-4.259,1.628c-0.499,0-0.964-0.033-1.331-0.1v5.921h-1.862V129.688z"/>
<path fill-rule="evenodd" clip-rule="evenodd" fill="#7F8184" d="M305.702,138.237l-1.265-4.093
	c-0.299-0.998-0.533-1.962-0.732-2.891h-0.066c-0.2,0.929-0.432,1.961-0.699,2.858l-1.263,4.125H305.702z M301.344,139.666
	l-1.397,4.558h-1.896l4.591-14.703h2.195l4.557,14.703h-1.929l-1.429-4.558H301.344z"/>
<path fill="#7F8184" d="M321.37,143.658c-0.797,0.334-2.361,0.731-4.058,0.731c-1.963,0-3.659-0.501-4.957-1.792
	c-1.231-1.202-1.996-3.165-1.996-5.591c0-4.824,3.027-7.651,7.352-7.651c1.498,0,2.662,0.298,3.26,0.598l-0.432,1.53
	c-0.699-0.299-1.563-0.565-2.86-0.565c-3.095,0-5.391,2.03-5.391,5.987c0,3.96,2.131,5.956,5.125,5.956
	c1.064,0,1.761-0.166,2.128-0.332v-4.525h-2.694v-1.494h4.524V143.658z"/>
<path fill-rule="evenodd" clip-rule="evenodd" fill="#7F8184" d="M325.262,136.938c0,3.096,1.397,5.991,4.125,5.991
	c2.728,0,4.091-2.895,4.091-6.121c0-2.862-1.231-5.991-4.091-5.991C326.56,130.817,325.262,133.779,325.262,136.938z M335.44,136.74
	c0,5.188-2.76,7.714-6.154,7.714c-3.558,0-5.987-2.891-5.987-7.484c0-4.723,2.594-7.68,6.188-7.68
	C333.114,129.291,335.44,132.247,335.44,136.74z"/>
<path fill="#7F8184" d="M337.538,142.029c0.763,0.5,1.896,0.866,3.062,0.866c1.862,0,2.959-1,2.959-2.53
	c0-1.362-0.798-2.161-2.594-2.927c-2.063-0.832-3.626-2.164-3.626-4.159c0-2.294,1.862-3.957,4.624-3.957
	c1.33,0,2.362,0.331,2.926,0.63l-0.499,1.53c-0.463-0.23-1.331-0.633-2.528-0.633c-1.862,0-2.628,1.166-2.628,2.164
	c0,1.429,0.866,2.063,2.764,2.895c2.327,1.063,3.459,2.329,3.459,4.325c0,2.329-1.731,4.19-4.958,4.19
	c-1.298,0-2.762-0.365-3.425-0.832L337.538,142.029z"/>
<path fill-rule="evenodd" clip-rule="evenodd" fill="#7F8184" d="M355.467,140.199c-1.328-0.031-3.426,0.166-3.426,2.027
	c0,1.098,0.666,1.567,1.363,1.567c1.099,0,1.765-0.699,1.998-1.499c0.033-0.166,0.064-0.334,0.064-0.464V140.199z M356.201,142.493
	c0,0.564,0,1.199,0.099,1.767h-0.665l-0.1-1.032h-0.068c-0.333,0.597-1.063,1.163-2.128,1.163c-1.363,0-2.095-0.962-2.095-2.059
	c0-1.768,1.529-2.729,4.223-2.729v-0.233c0-0.897-0.165-2.197-1.761-2.164c-0.601,0-1.199,0.136-1.698,0.5l-0.199-0.533
	c0.564-0.432,1.332-0.597,1.996-0.597c1.863,0,2.396,1.296,2.396,2.794V142.493z"/>
<rect x="358.495" y="133.182" fill="#7F8184" width="0.731" height="11.042"/>
<rect x="366.413" y="129.521" fill="#7F8184" width="1.896" height="14.703"/>
<path fill="#7F8184" d="M371.47,144.224v-14.703h1.994l4.158,7.253c0.97,1.697,1.833,3.393,2.463,4.922h0.032
	c-0.13-2.095-0.199-3.928-0.199-6.287v-5.889h1.733v14.703h-1.834l-4.188-7.319c-0.931-1.631-1.83-3.294-2.496-4.957h-0.065
	c0.13,1.896,0.13,3.694,0.13,6.354v5.921H371.47z"/>
<path fill="#7F8184" d="M384.543,142.029c0.768,0.5,1.897,0.866,3.061,0.866c1.864,0,2.963-1,2.963-2.53
	c0-1.362-0.801-2.161-2.597-2.927c-2.063-0.832-3.627-2.164-3.627-4.159c0-2.294,1.862-3.957,4.625-3.957
	c1.332,0,2.365,0.331,2.93,0.63l-0.499,1.53c-0.469-0.23-1.332-0.633-2.529-0.633c-1.864,0-2.632,1.166-2.632,2.164
	c0,1.429,0.869,2.063,2.764,2.895c2.332,1.063,3.463,2.329,3.463,4.325c0,2.329-1.733,4.19-4.958,4.19
	c-1.301,0-2.762-0.365-3.428-0.832L384.543,142.029z"/>
<polygon fill="#7F8184" points="397.453,131.083 393.426,131.083 393.426,129.521 403.34,129.521 403.34,131.083 399.314,131.083
	399.314,144.224 397.453,144.224 "/>
<path fill-rule="evenodd" clip-rule="evenodd" fill="#7F8184" d="M410.125,138.237l-1.263-4.093
	c-0.267-0.998-0.499-1.962-0.701-2.891h-0.065c-0.199,0.929-0.432,1.961-0.7,2.858l-1.261,4.125H410.125z M405.771,139.666
	l-1.365,4.558h-1.897l4.59-14.703h2.161l4.593,14.703h-1.929l-1.43-4.558H405.771z"/>
<path fill="#7F8184" d="M415.98,144.224v-14.703h1.964l4.192,7.253c0.962,1.697,1.794,3.393,2.462,4.922h0.033
	c-0.17-2.095-0.201-3.928-0.201-6.287v-5.889h1.729v14.703h-1.828l-4.226-7.319c-0.9-1.631-1.796-3.294-2.495-4.957h-0.068
	c0.137,1.896,0.169,3.694,0.169,6.354v5.921H415.98z"/>
<polygon fill="#7F8184" points="431.852,131.083 427.822,131.083 427.822,129.521 437.738,129.521 437.738,131.083 433.713,131.083
	433.713,144.224 431.852,144.224 "/>
<polygon fill="#7F8184" points="446.486,137.305 441.297,137.305 441.297,142.695 447.12,142.695 447.12,144.224 439.433,144.224
	439.433,129.521 446.82,129.521 446.82,131.05 441.297,131.05 441.297,135.774 446.486,135.774 "/>
</svg>
